<?xml version="1.0" encoding="UTF-8" standalone="no"?>
<!DOCTYPE svg PUBLIC "-//W3C//DTD SVG 1.1//EN"
 "http://www.w3.org/Graphics/SVG/1.1/DTD/svg11.dtd">
<!-- Generated by graphviz version 2.26.3 (20100126.1600)
 -->
<!-- Title: Finite_Automata_Graph Pages: 1 -->
<svg width="106pt" height="404pt"
 viewBox="0.00 0.00 106.00 404.00" xmlns="http://www.w3.org/2000/svg" xmlns:xlink="http://www.w3.org/1999/xlink">
<g id="graph1" class="graph" transform="scale(1 1) rotate(0) translate(4 400)">
<title>Finite_Automata_Graph</title>
<polygon fill="white" stroke="white" points="-4,5 -4,-400 103,-400 103,5 -4,5"/>
<!-- 0 -->
<g id="node1" class="node"><title>0</title>
<ellipse fill="none" stroke="#000000" cx="80" cy="-378" rx="18" ry="18"/>
<text text-anchor="middle" x="80" y="-373.4" font-family="Times Roman,serif" font-size="14.00">0</text>
</g>
<!-- 1 -->
<g id="node2" class="node"><title>1</title>
<ellipse fill="none" stroke="#000000" cx="80" cy="-290" rx="18" ry="18"/>
<text text-anchor="middle" x="80" y="-285.4" font-family="Times Roman,serif" font-size="14.00">1</text>
</g>
<!-- 0&#45;&gt;1 -->
<g id="edge2" class="edge"><title>0&#45;&gt;1</title>
<path fill="none" stroke="black" d="M80,-359.766C80,-347.849 80,-332.038 80,-318.482"/>
<polygon fill="black" stroke="black" points="83.5001,-318.21 80,-308.21 76.5001,-318.21 83.5001,-318.21"/>
<text text-anchor="middle" x="85" y="-329.4" font-family="Times Roman,serif" font-size="14.00">B</text>
</g>
<!-- 2 -->
<g id="node3" class="node"><title>2</title>
<ellipse fill="none" stroke="#000000" cx="18" cy="-202" rx="18" ry="18"/>
<text text-anchor="middle" x="18" y="-197.4" font-family="Times Roman,serif" font-size="14.00">2</text>
</g>
<!-- 1&#45;&gt;2 -->
<g id="edge4" class="edge"><title>1&#45;&gt;2</title>
<path fill="none" stroke="black" d="M69.4825,-275.072C59.8629,-261.418 45.4804,-241.004 34.3603,-225.221"/>
<polygon fill="black" stroke="black" points="37.1898,-223.16 28.569,-217.001 31.4674,-227.192 37.1898,-223.16"/>
<text text-anchor="middle" x="60.5" y="-241.4" font-family="Times Roman,serif" font-size="14.00">N</text>
</g>
<!-- 3 -->
<g id="node4" class="node"><title>3</title>
<ellipse fill="none" stroke="#000000" cx="76" cy="-110" rx="18" ry="18"/>
<ellipse fill="none" stroke="#000000" cx="76" cy="-110" rx="22" ry="22"/>
<text text-anchor="middle" x="76" y="-105.4" font-family="Times Roman,serif" font-size="14.00">3</text>
</g>
<!-- 1&#45;&gt;3 -->
<g id="edge6" class="edge"><title>1&#45;&gt;3</title>
<path fill="none" stroke="black" d="M79.5944,-271.75C78.922,-241.489 77.567,-180.517 76.7263,-142.685"/>
<polygon fill="black" stroke="black" points="80.2149,-142.129 76.4935,-132.21 73.2167,-142.285 80.2149,-142.129"/>
<text text-anchor="middle" x="83" y="-197.4" font-family="Times Roman,serif" font-size="14.00">E</text>
</g>
<!-- 2&#45;&gt;2 -->
<g id="edge8" class="edge"><title>2&#45;&gt;2</title>
<path fill="none" stroke="black" d="M34.2903,-209.668C44.3892,-211.517 54,-208.961 54,-202 54,-197.541 50.0557,-194.889 44.5656,-194.045"/>
<polygon fill="black" stroke="black" points="44.1887,-190.554 34.2903,-194.332 44.384,-197.552 44.1887,-190.554"/>
<text text-anchor="middle" x="59.5" y="-197.4" font-family="Times Roman,serif" font-size="14.00">N</text>
</g>
<!-- 2&#45;&gt;3 -->
<g id="edge10" class="edge"><title>2&#45;&gt;3</title>
<path fill="none" stroke="black" d="M27.8389,-186.393C36.2142,-173.108 48.449,-153.702 58.4909,-137.773"/>
<polygon fill="black" stroke="black" points="61.7319,-139.195 64.1042,-128.869 55.8104,-135.462 61.7319,-139.195"/>
<text text-anchor="middle" x="56" y="-153.4" font-family="Times Roman,serif" font-size="14.00">E</text>
</g>
<!-- 4 -->
<g id="node5" class="node"><title>4</title>
<ellipse fill="none" stroke="#000000" cx="51" cy="-18" rx="18" ry="18"/>
<text text-anchor="middle" x="51" y="-13.4" font-family="Times Roman,serif" font-size="14.00">4</text>
</g>
<!-- 3&#45;&gt;4 -->
<g id="edge12" class="edge"><title>3&#45;&gt;4</title>
<path fill="none" stroke="black" d="M70.8736,-88.3919C68.3299,-77.966 65.1361,-65.2979 62,-54 61.1703,-51.0108 60.27,-47.8924 59.354,-44.7955"/>
<polygon fill="black" stroke="black" points="62.6851,-43.7191 56.4406,-35.16 55.9847,-45.745 62.6851,-43.7191"/>
<text text-anchor="middle" x="72" y="-57.4" font-family="Times Roman,serif" font-size="14.00">E</text>
</g>
<!-- 4&#45;&gt;2 -->
<g id="edge14" class="edge"><title>4&#45;&gt;2</title>
<path fill="none" stroke="black" d="M46.2556,-35.4436C42.5442,-49.5424 37.4511,-69.943 34,-88 28.4616,-116.979 23.9903,-150.444 21.197,-173.585"/>
<polygon fill="black" stroke="black" points="17.6943,-173.403 19.9986,-183.744 24.6461,-174.223 17.6943,-173.403"/>
<text text-anchor="middle" x="39.5" y="-105.4" font-family="Times Roman,serif" font-size="14.00">N</text>
</g>
<!-- 4&#45;&gt;3 -->
<g id="edge16" class="edge"><title>4&#45;&gt;3</title>
<path fill="none" stroke="black" d="M48.574,-36.1504C47.8151,-46.298 47.8641,-59.0658 51,-70 52.3673,-74.7674 54.4868,-79.5178 56.9261,-83.9924"/>
<polygon fill="black" stroke="black" points="54.0471,-85.9938 62.2438,-92.7069 60.0225,-82.3475 54.0471,-85.9938"/>
<text text-anchor="middle" x="56" y="-57.4" font-family="Times Roman,serif" font-size="14.00">E</text>
</g>
</g>
</svg>
