<?xml version="1.0" encoding="UTF-8" standalone="no"?>
<!DOCTYPE svg PUBLIC "-//W3C//DTD SVG 1.1//EN"
 "http://www.w3.org/Graphics/SVG/1.1/DTD/svg11.dtd">
<!-- Generated by graphviz version 2.26.3 (20100126.1600)
 -->
<!-- Title: Finite_Automata_Graph Pages: 1 -->
<svg width="204pt" height="492pt"
 viewBox="0.00 0.00 204.00 492.00" xmlns="http://www.w3.org/2000/svg" xmlns:xlink="http://www.w3.org/1999/xlink">
<g id="graph1" class="graph" transform="scale(1 1) rotate(0) translate(4 488)">
<title>Finite_Automata_Graph</title>
<polygon fill="white" stroke="white" points="-4,5 -4,-488 201,-488 201,5 -4,5"/>
<!-- 0 -->
<g id="node1" class="node"><title>0</title>
<ellipse fill="none" stroke="#000000" cx="46" cy="-466" rx="18" ry="18"/>
<text text-anchor="middle" x="46" y="-461.4" font-family="Times Roman,serif" font-size="14.00">0</text>
</g>
<!-- 1 -->
<g id="node2" class="node"><title>1</title>
<ellipse fill="none" stroke="#000000" cx="46" cy="-378" rx="18" ry="18"/>
<text text-anchor="middle" x="46" y="-373.4" font-family="Times Roman,serif" font-size="14.00">1</text>
</g>
<!-- 0&#45;&gt;1 -->
<g id="edge2" class="edge"><title>0&#45;&gt;1</title>
<path fill="none" stroke="black" d="M46,-447.766C46,-435.849 46,-420.038 46,-406.482"/>
<polygon fill="black" stroke="black" points="49.5001,-406.21 46,-396.21 42.5001,-406.21 49.5001,-406.21"/>
<text text-anchor="middle" x="49.5" y="-417.4" font-family="Times Roman,serif" font-size="14.00">&quot;</text>
</g>
<!-- 2 -->
<g id="node3" class="node"><title>2</title>
<ellipse fill="none" stroke="#000000" cx="123" cy="-22" rx="18" ry="18"/>
<ellipse fill="none" stroke="#000000" cx="123" cy="-22" rx="22" ry="22"/>
<text text-anchor="middle" x="123" y="-17.4" font-family="Times Roman,serif" font-size="14.00">2</text>
</g>
<!-- 1&#45;&gt;2 -->
<g id="edge4" class="edge"><title>1&#45;&gt;2</title>
<path fill="none" stroke="black" d="M33.6728,-364.512C20.0471,-348.153 0,-319.134 0,-290 0,-290 0,-290 0,-114 0,-68.175 55.4233,-42.4165 91.8626,-30.4333"/>
<polygon fill="black" stroke="black" points="93.0651,-33.7247 101.575,-27.4134 90.9868,-27.0404 93.0651,-33.7247"/>
<text text-anchor="middle" x="3.5" y="-197.4" font-family="Times Roman,serif" font-size="14.00">&quot;</text>
</g>
<!-- 3 -->
<g id="node4" class="node"><title>3</title>
<ellipse fill="none" stroke="#000000" cx="111" cy="-290" rx="18" ry="18"/>
<text text-anchor="middle" x="111" y="-285.4" font-family="Times Roman,serif" font-size="14.00">3</text>
</g>
<!-- 1&#45;&gt;3 -->
<g id="edge6" class="edge"><title>1&#45;&gt;3</title>
<path fill="none" stroke="black" d="M56.7334,-363.469C66.8951,-349.711 82.3109,-328.841 94.1184,-312.855"/>
<polygon fill="black" stroke="black" points="97.1245,-314.676 100.251,-304.553 91.494,-310.517 97.1245,-314.676"/>
<text text-anchor="middle" x="89.5" y="-329.4" font-family="Times Roman,serif" font-size="14.00">N</text>
</g>
<!-- 4 -->
<g id="node5" class="node"><title>4</title>
<ellipse fill="none" stroke="#000000" cx="111" cy="-202" rx="18" ry="18"/>
<text text-anchor="middle" x="111" y="-197.4" font-family="Times Roman,serif" font-size="14.00">4</text>
</g>
<!-- 1&#45;&gt;4 -->
<g id="edge8" class="edge"><title>1&#45;&gt;4</title>
<path fill="none" stroke="black" d="M49.4498,-359.976C53.8453,-338.562 62.3004,-301.964 74,-272 80.1553,-256.235 88.9479,-239.444 96.4174,-226.259"/>
<polygon fill="black" stroke="black" points="99.5864,-227.771 101.566,-217.362 93.5277,-224.264 99.5864,-227.771"/>
<text text-anchor="middle" x="79" y="-285.4" font-family="Times Roman,serif" font-size="14.00">S</text>
</g>
<!-- 3&#45;&gt;2 -->
<g id="edge10" class="edge"><title>3&#45;&gt;2</title>
<path fill="none" stroke="black" d="M126.558,-280.404C144.009,-268.633 171.388,-246.889 183,-220 192.556,-197.872 186.888,-190.077 188,-166 189.436,-134.922 198.97,-125.113 188,-96 180.063,-74.9384 163.105,-55.9722 148.5,-42.5145"/>
<polygon fill="black" stroke="black" points="150.512,-39.6225 140.7,-35.6264 145.879,-44.8694 150.512,-39.6225"/>
<text text-anchor="middle" x="192.5" y="-153.4" font-family="Times Roman,serif" font-size="14.00">&quot;</text>
</g>
<!-- 3&#45;&gt;3 -->
<g id="edge12" class="edge"><title>3&#45;&gt;3</title>
<path fill="none" stroke="black" d="M127.29,-297.668C137.389,-299.517 147,-296.961 147,-290 147,-285.541 143.056,-282.889 137.566,-282.045"/>
<polygon fill="black" stroke="black" points="137.189,-278.554 127.29,-282.332 137.384,-285.552 137.189,-278.554"/>
<text text-anchor="middle" x="152.5" y="-285.4" font-family="Times Roman,serif" font-size="14.00">N</text>
</g>
<!-- 3&#45;&gt;4 -->
<g id="edge14" class="edge"><title>3&#45;&gt;4</title>
<path fill="none" stroke="black" d="M111,-271.766C111,-259.849 111,-244.038 111,-230.482"/>
<polygon fill="black" stroke="black" points="114.5,-230.21 111,-220.21 107.5,-230.21 114.5,-230.21"/>
<text text-anchor="middle" x="116" y="-241.4" font-family="Times Roman,serif" font-size="14.00">S</text>
</g>
<!-- 5 -->
<g id="node6" class="node"><title>5</title>
<ellipse fill="none" stroke="#000000" cx="94" cy="-114" rx="18" ry="18"/>
<text text-anchor="middle" x="94" y="-109.4" font-family="Times Roman,serif" font-size="14.00">5</text>
</g>
<!-- 4&#45;&gt;5 -->
<g id="edge16" class="edge"><title>4&#45;&gt;5</title>
<path fill="none" stroke="black" d="M98.1784,-189.19C92.6782,-182.795 86.8658,-174.597 84,-166 81.2718,-157.815 81.8876,-148.644 83.7623,-140.308"/>
<polygon fill="black" stroke="black" points="87.1315,-141.257 86.5333,-130.679 80.4044,-139.321 87.1315,-141.257"/>
<text text-anchor="middle" x="87.5" y="-153.4" font-family="Times Roman,serif" font-size="14.00">&quot;</text>
</g>
<!-- 6 -->
<g id="node7" class="node"><title>6</title>
<ellipse fill="none" stroke="#000000" cx="161" cy="-114" rx="18" ry="18"/>
<text text-anchor="middle" x="161" y="-109.4" font-family="Times Roman,serif" font-size="14.00">6</text>
</g>
<!-- 4&#45;&gt;6 -->
<g id="edge18" class="edge"><title>4&#45;&gt;6</title>
<path fill="none" stroke="black" d="M127.134,-193.173C136.901,-186.926 148.66,-177.607 155,-166 158.877,-158.902 160.784,-150.454 161.621,-142.453"/>
<polygon fill="black" stroke="black" points="165.123,-142.522 162.182,-132.344 158.134,-142.134 165.123,-142.522"/>
<text text-anchor="middle" x="165" y="-153.4" font-family="Times Roman,serif" font-size="14.00">S</text>
</g>
<!-- 5&#45;&gt;2 -->
<g id="edge20" class="edge"><title>5&#45;&gt;2</title>
<path fill="none" stroke="black" d="M99.4547,-96.6955C103.347,-84.3464 108.688,-67.4033 113.299,-52.7753"/>
<polygon fill="black" stroke="black" points="116.68,-53.6927 116.348,-43.1031 110.003,-51.5882 116.68,-53.6927"/>
<text text-anchor="middle" x="113.5" y="-65.4" font-family="Times Roman,serif" font-size="14.00">&quot;</text>
</g>
<!-- 5&#45;&gt;3 -->
<g id="edge22" class="edge"><title>5&#45;&gt;3</title>
<path fill="none" stroke="black" d="M85.7045,-130.135C82.8767,-136.223 79.9421,-143.3 78,-150 69.3169,-179.957 65.3235,-189.769 73,-220 77.2584,-236.77 86.4321,-253.869 94.6988,-266.97"/>
<polygon fill="black" stroke="black" points="91.7879,-268.914 100.206,-275.347 97.6374,-265.068 91.7879,-268.914"/>
<text text-anchor="middle" x="78.5" y="-197.4" font-family="Times Roman,serif" font-size="14.00">N</text>
</g>
<!-- 5&#45;&gt;4 -->
<g id="edge24" class="edge"><title>5&#45;&gt;4</title>
<path fill="none" stroke="black" d="M97.4351,-131.782C99.7842,-143.942 102.946,-160.308 105.626,-174.18"/>
<polygon fill="black" stroke="black" points="102.227,-175.037 107.56,-184.192 109.099,-173.71 102.227,-175.037"/>
<text text-anchor="middle" x="109" y="-153.4" font-family="Times Roman,serif" font-size="14.00">S</text>
</g>
<!-- 6&#45;&gt;2 -->
<g id="edge26" class="edge"><title>6&#45;&gt;2</title>
<path fill="none" stroke="black" d="M154.03,-97.1258C148.828,-84.5301 141.581,-66.9849 135.399,-52.0177"/>
<polygon fill="black" stroke="black" points="138.575,-50.5387 131.522,-42.6323 132.105,-53.2111 138.575,-50.5387"/>
<text text-anchor="middle" x="148.5" y="-65.4" font-family="Times Roman,serif" font-size="14.00">&quot;</text>
</g>
<!-- 6&#45;&gt;3 -->
<g id="edge28" class="edge"><title>6&#45;&gt;3</title>
<path fill="none" stroke="black" d="M169.209,-130.374C173.315,-140.602 176.861,-154.054 174,-166 164.975,-203.689 142.504,-242.859 126.994,-266.839"/>
<polygon fill="black" stroke="black" points="124.028,-264.979 121.433,-275.252 129.867,-268.84 124.028,-264.979"/>
<text text-anchor="middle" x="173.5" y="-197.4" font-family="Times Roman,serif" font-size="14.00">N</text>
</g>
<!-- 6&#45;&gt;4 -->
<g id="edge30" class="edge"><title>6&#45;&gt;4</title>
<path fill="none" stroke="black" d="M151.97,-129.893C144.453,-143.123 133.622,-162.185 124.985,-177.387"/>
<polygon fill="black" stroke="black" points="121.836,-175.844 119.939,-186.267 127.922,-179.302 121.836,-175.844"/>
<text text-anchor="middle" x="145" y="-153.4" font-family="Times Roman,serif" font-size="14.00">S</text>
</g>
</g>
</svg>
