<?xml version="1.0" encoding="UTF-8" standalone="no"?>
<!DOCTYPE svg PUBLIC "-//W3C//DTD SVG 1.1//EN"
 "http://www.w3.org/Graphics/SVG/1.1/DTD/svg11.dtd">
<!-- Generated by graphviz version 2.26.3 (20100126.1600)
 -->
<!-- Title: Finite_Automata_Graph Pages: 1 -->
<svg width="447pt" height="1190pt"
 viewBox="0.00 0.00 447.00 1190.00" xmlns="http://www.w3.org/2000/svg" xmlns:xlink="http://www.w3.org/1999/xlink">
<g id="graph1" class="graph" transform="scale(1 1) rotate(0) translate(4 1186)">
<title>Finite_Automata_Graph</title>
<polygon fill="white" stroke="white" points="-4,5 -4,-1186 444,-1186 444,5 -4,5"/>
<!-- 0 -->
<g id="node1" class="node"><title>0</title>
<ellipse fill="none" stroke="#000000" cx="47" cy="-1164" rx="18" ry="18"/>
<text text-anchor="middle" x="47" y="-1159.4" font-family="Times Roman,serif" font-size="14.00">0</text>
</g>
<!-- 1 -->
<g id="node2" class="node"><title>1</title>
<ellipse fill="none" stroke="#000000" cx="47" cy="-1076" rx="18" ry="18"/>
<text text-anchor="middle" x="47" y="-1071.4" font-family="Times Roman,serif" font-size="14.00">1</text>
</g>
<!-- 0&#45;&gt;1 -->
<g id="edge2" class="edge"><title>0&#45;&gt;1</title>
<path fill="none" stroke="black" d="M47,-1145.77C47,-1133.85 47,-1118.04 47,-1104.48"/>
<polygon fill="black" stroke="black" points="50.5001,-1104.21 47,-1094.21 43.5001,-1104.21 50.5001,-1104.21"/>
<text text-anchor="middle" x="50.5" y="-1115.4" font-family="Times Roman,serif" font-size="14.00">&quot;</text>
</g>
<!-- 2 -->
<g id="node3" class="node"><title>2</title>
<ellipse fill="none" stroke="#000000" cx="47" cy="-988" rx="18" ry="18"/>
<text text-anchor="middle" x="47" y="-983.4" font-family="Times Roman,serif" font-size="14.00">2</text>
</g>
<!-- 1&#45;&gt;2 -->
<g id="edge4" class="edge"><title>1&#45;&gt;2</title>
<path fill="none" stroke="black" d="M47,-1057.77C47,-1045.85 47,-1030.04 47,-1016.48"/>
<polygon fill="black" stroke="black" points="50.5001,-1016.21 47,-1006.21 43.5001,-1016.21 50.5001,-1016.21"/>
<text text-anchor="middle" x="50.5" y="-1027.4" font-family="Times Roman,serif" font-size="14.00">&quot;</text>
</g>
<!-- 3 -->
<g id="node4" class="node"><title>3</title>
<ellipse fill="none" stroke="#000000" cx="47" cy="-900" rx="18" ry="18"/>
<text text-anchor="middle" x="47" y="-895.4" font-family="Times Roman,serif" font-size="14.00">3</text>
</g>
<!-- 2&#45;&gt;3 -->
<g id="edge6" class="edge"><title>2&#45;&gt;3</title>
<path fill="none" stroke="black" d="M47,-969.766C47,-957.849 47,-942.038 47,-928.482"/>
<polygon fill="black" stroke="black" points="50.5001,-928.21 47,-918.21 43.5001,-928.21 50.5001,-928.21"/>
<text text-anchor="middle" x="50.5" y="-939.4" font-family="Times Roman,serif" font-size="14.00">&quot;</text>
</g>
<!-- 4 -->
<g id="node5" class="node"><title>4</title>
<ellipse fill="none" stroke="#000000" cx="156" cy="-812" rx="18" ry="18"/>
<text text-anchor="middle" x="156" y="-807.4" font-family="Times Roman,serif" font-size="14.00">4</text>
</g>
<!-- 3&#45;&gt;4 -->
<g id="edge8" class="edge"><title>3&#45;&gt;4</title>
<path fill="none" stroke="black" d="M61.2498,-888.496C79.6916,-873.607 112.026,-847.502 133.725,-829.984"/>
<polygon fill="black" stroke="black" points="136.164,-832.512 141.747,-823.507 131.767,-827.066 136.164,-832.512"/>
<text text-anchor="middle" x="114.5" y="-851.4" font-family="Times Roman,serif" font-size="14.00">&quot;</text>
</g>
<!-- 5 -->
<g id="node6" class="node"><title>5</title>
<ellipse fill="none" stroke="#000000" cx="145" cy="-18" rx="18" ry="18"/>
<text text-anchor="middle" x="145" y="-13.4" font-family="Times Roman,serif" font-size="14.00">5</text>
</g>
<!-- 3&#45;&gt;5 -->
<g id="edge10" class="edge"><title>3&#45;&gt;5</title>
<path fill="none" stroke="black" d="M34.6513,-886.848C20.726,-870.589 0,-841.444 0,-812 0,-812 0,-812 0,-111 0,-55.8599 75.2129,-31.9053 117.3,-22.8173"/>
<polygon fill="black" stroke="black" points="118.109,-26.2246 127.22,-20.8172 116.726,-19.3627 118.109,-26.2246"/>
<text text-anchor="middle" x="5.5" y="-473.4" font-family="Times Roman,serif" font-size="14.00">A</text>
</g>
<!-- 6 -->
<g id="node7" class="node"><title>6</title>
<ellipse fill="none" stroke="#000000" cx="182" cy="-724" rx="18" ry="18"/>
<text text-anchor="middle" x="182" y="-719.4" font-family="Times Roman,serif" font-size="14.00">6</text>
</g>
<!-- 4&#45;&gt;6 -->
<g id="edge12" class="edge"><title>4&#45;&gt;6</title>
<path fill="none" stroke="black" d="M161.137,-794.614C164.805,-782.2 169.81,-765.258 173.999,-751.08"/>
<polygon fill="black" stroke="black" points="177.397,-751.932 176.874,-741.35 170.684,-749.948 177.397,-751.932"/>
<text text-anchor="middle" x="174.5" y="-763.4" font-family="Times Roman,serif" font-size="14.00">&quot;</text>
</g>
<!-- 7 -->
<g id="node8" class="node"><title>7</title>
<ellipse fill="none" stroke="#000000" cx="46" cy="-724" rx="18" ry="18"/>
<text text-anchor="middle" x="46" y="-719.4" font-family="Times Roman,serif" font-size="14.00">7</text>
</g>
<!-- 4&#45;&gt;7 -->
<g id="edge14" class="edge"><title>4&#45;&gt;7</title>
<path fill="none" stroke="black" d="M138.284,-808.791C110.066,-803.278 56.9681,-791.13 46,-776 40.9522,-769.037 39.6613,-760.055 40.0302,-751.521"/>
<polygon fill="black" stroke="black" points="43.5176,-751.83 41.1624,-741.5 36.5618,-751.044 43.5176,-751.83"/>
<text text-anchor="middle" x="51.5" y="-763.4" font-family="Times Roman,serif" font-size="14.00">A</text>
</g>
<!-- 5&#45;&gt;4 -->
<g id="edge16" class="edge"><title>5&#45;&gt;4</title>
<path fill="none" stroke="black" d="M162.953,-19.8608C225.784,-26.8624 432,-54.1709 432,-111 432,-724 432,-724 432,-724 432,-758.291 405.859,-761.046 375,-776 341.738,-792.118 235.331,-804.297 184.095,-809.388"/>
<polygon fill="black" stroke="black" points="183.659,-805.914 174.045,-810.366 184.337,-812.881 183.659,-805.914"/>
<text text-anchor="middle" x="435.5" y="-420.4" font-family="Times Roman,serif" font-size="14.00">&quot;</text>
</g>
<!-- 5&#45;&gt;5 -->
<g id="edge18" class="edge"><title>5&#45;&gt;5</title>
<path fill="none" stroke="black" d="M161.29,-25.6679C171.389,-27.5169 181,-24.9609 181,-18 181,-13.5406 177.056,-10.8891 171.566,-10.0454"/>
<polygon fill="black" stroke="black" points="171.189,-6.55441 161.29,-10.3321 171.384,-13.5517 171.189,-6.55441"/>
<text text-anchor="middle" x="186.5" y="-13.4" font-family="Times Roman,serif" font-size="14.00">A</text>
</g>
<!-- 8 -->
<g id="node9" class="node"><title>8</title>
<ellipse fill="none" stroke="#000000" cx="200" cy="-632" rx="18" ry="18"/>
<ellipse fill="none" stroke="#000000" cx="200" cy="-632" rx="22" ry="22"/>
<text text-anchor="middle" x="200" y="-627.4" font-family="Times Roman,serif" font-size="14.00">8</text>
</g>
<!-- 6&#45;&gt;8 -->
<g id="edge20" class="edge"><title>6&#45;&gt;8</title>
<path fill="none" stroke="black" d="M185.471,-706.261C187.822,-694.245 190.995,-678.027 193.776,-663.812"/>
<polygon fill="black" stroke="black" points="197.229,-664.391 195.714,-653.905 190.359,-663.047 197.229,-664.391"/>
<text text-anchor="middle" x="195.5" y="-675.4" font-family="Times Roman,serif" font-size="14.00">&quot;</text>
</g>
<!-- 9 -->
<g id="node10" class="node"><title>9</title>
<ellipse fill="none" stroke="#000000" cx="90" cy="-632" rx="18" ry="18"/>
<text text-anchor="middle" x="90" y="-627.4" font-family="Times Roman,serif" font-size="14.00">9</text>
</g>
<!-- 6&#45;&gt;9 -->
<g id="edge22" class="edge"><title>6&#45;&gt;9</title>
<path fill="none" stroke="black" d="M172.46,-708.486C165.364,-697.615 155.033,-683.105 144,-672 135.06,-663.002 123.974,-654.432 114.177,-647.55"/>
<polygon fill="black" stroke="black" points="115.878,-644.474 105.641,-641.74 111.939,-650.26 115.878,-644.474"/>
<text text-anchor="middle" x="162.5" y="-675.4" font-family="Times Roman,serif" font-size="14.00">A</text>
</g>
<!-- 7&#45;&gt;4 -->
<g id="edge24" class="edge"><title>7&#45;&gt;4</title>
<path fill="none" stroke="black" d="M54.2893,-740.189C60.6597,-751.378 70.3325,-765.991 82,-776 95.7445,-787.79 114.019,-796.73 128.969,-802.753"/>
<polygon fill="black" stroke="black" points="128.1,-806.167 138.691,-806.455 130.591,-799.625 128.1,-806.167"/>
<text text-anchor="middle" x="85.5" y="-763.4" font-family="Times Roman,serif" font-size="14.00">&quot;</text>
</g>
<!-- 7&#45;&gt;5 -->
<g id="edge26" class="edge"><title>7&#45;&gt;5</title>
<path fill="none" stroke="black" d="M43.5126,-706.059C41.1642,-687.546 38,-657.812 38,-632 38,-632 38,-632 38,-111 38,-68.5811 86.497,-41.1262 118.191,-27.7129"/>
<polygon fill="black" stroke="black" points="119.834,-30.8251 127.809,-23.8501 117.225,-24.3295 119.834,-30.8251"/>
<text text-anchor="middle" x="43.5" y="-367.4" font-family="Times Roman,serif" font-size="14.00">A</text>
</g>
<!-- 10 -->
<g id="node11" class="node"><title>10</title>
<ellipse fill="none" stroke="#000000" cx="203" cy="-531" rx="22.8079" ry="22.8079"/>
<ellipse fill="none" stroke="#000000" cx="203" cy="-531" rx="26.8079" ry="26.8079"/>
<text text-anchor="middle" x="203" y="-526.4" font-family="Times Roman,serif" font-size="14.00">10</text>
</g>
<!-- 8&#45;&gt;10 -->
<g id="edge28" class="edge"><title>8&#45;&gt;10</title>
<path fill="none" stroke="black" d="M200.666,-609.585C201.026,-597.451 201.481,-582.146 201.893,-568.273"/>
<polygon fill="black" stroke="black" points="205.399,-568.12 202.197,-558.021 198.402,-567.912 205.399,-568.12"/>
<text text-anchor="middle" x="204.5" y="-579.4" font-family="Times Roman,serif" font-size="14.00">&quot;</text>
</g>
<!-- 11 -->
<g id="node12" class="node"><title>11</title>
<ellipse fill="none" stroke="#000000" cx="135" cy="-531" rx="22.8079" ry="22.8079"/>
<text text-anchor="middle" x="135" y="-526.4" font-family="Times Roman,serif" font-size="14.00">11</text>
</g>
<!-- 8&#45;&gt;11 -->
<g id="edge30" class="edge"><title>8&#45;&gt;11</title>
<path fill="none" stroke="black" d="M188.078,-613.475C178.278,-598.247 164.237,-576.431 153.058,-559.06"/>
<polygon fill="black" stroke="black" points="155.866,-556.955 147.511,-550.44 149.98,-560.743 155.866,-556.955"/>
<text text-anchor="middle" x="178.5" y="-579.4" font-family="Times Roman,serif" font-size="14.00">A</text>
</g>
<!-- 9&#45;&gt;4 -->
<g id="edge32" class="edge"><title>9&#45;&gt;4</title>
<path fill="none" stroke="black" d="M90.9644,-650.35C93.122,-678.804 100.037,-734.599 122,-776 125.226,-782.08 129.759,-787.878 134.467,-792.976"/>
<polygon fill="black" stroke="black" points="132.298,-795.757 141.846,-800.351 137.247,-790.806 132.298,-795.757"/>
<text text-anchor="middle" x="110.5" y="-719.4" font-family="Times Roman,serif" font-size="14.00">&quot;</text>
</g>
<!-- 9&#45;&gt;5 -->
<g id="edge34" class="edge"><title>9&#45;&gt;5</title>
<path fill="none" stroke="black" d="M88.2646,-613.773C86.4925,-593.563 84,-559.983 84,-531 84,-531 84,-531 84,-111 84,-81.5295 105.682,-54.1428 123.193,-36.8303"/>
<polygon fill="black" stroke="black" points="125.974,-39.0187 130.852,-29.6136 121.174,-33.924 125.974,-39.0187"/>
<text text-anchor="middle" x="89.5" y="-314.4" font-family="Times Roman,serif" font-size="14.00">A</text>
</g>
<!-- 12 -->
<g id="node13" class="node"><title>12</title>
<ellipse fill="none" stroke="#000000" cx="246" cy="-425" rx="22.8079" ry="22.8079"/>
<ellipse fill="none" stroke="#000000" cx="246" cy="-425" rx="26.8079" ry="26.8079"/>
<text text-anchor="middle" x="246" y="-420.4" font-family="Times Roman,serif" font-size="14.00">12</text>
</g>
<!-- 10&#45;&gt;12 -->
<g id="edge36" class="edge"><title>10&#45;&gt;12</title>
<path fill="none" stroke="black" d="M213.19,-505.879C218.773,-492.119 225.777,-474.853 231.878,-459.812"/>
<polygon fill="black" stroke="black" points="235.218,-460.89 235.734,-450.308 228.731,-458.258 235.218,-460.89"/>
<text text-anchor="middle" x="230.5" y="-473.4" font-family="Times Roman,serif" font-size="14.00">&quot;</text>
</g>
<!-- 13 -->
<g id="node14" class="node"><title>13</title>
<ellipse fill="none" stroke="#000000" cx="178" cy="-425" rx="22.8079" ry="22.8079"/>
<text text-anchor="middle" x="178" y="-420.4" font-family="Times Roman,serif" font-size="14.00">13</text>
</g>
<!-- 10&#45;&gt;13 -->
<g id="edge38" class="edge"><title>10&#45;&gt;13</title>
<path fill="none" stroke="black" d="M196.756,-504.525C193.395,-490.276 189.222,-472.58 185.665,-457.501"/>
<polygon fill="black" stroke="black" points="189.021,-456.483 183.319,-447.554 182.208,-458.09 189.021,-456.483"/>
<text text-anchor="middle" x="196.5" y="-473.4" font-family="Times Roman,serif" font-size="14.00">A</text>
</g>
<!-- 11&#45;&gt;4 -->
<g id="edge40" class="edge"><title>11&#45;&gt;4</title>
<path fill="none" stroke="black" d="M134.79,-554.186C134.695,-584.857 135.157,-640.577 139,-688 141.687,-721.164 147.242,-759.019 151.273,-784.087"/>
<polygon fill="black" stroke="black" points="147.825,-784.693 152.894,-793.997 154.733,-783.563 147.825,-784.693"/>
<text text-anchor="middle" x="142.5" y="-675.4" font-family="Times Roman,serif" font-size="14.00">&quot;</text>
</g>
<!-- 11&#45;&gt;5 -->
<g id="edge42" class="edge"><title>11&#45;&gt;5</title>
<path fill="none" stroke="black" d="M135.449,-507.961C137.076,-424.498 142.659,-138.07 144.446,-46.436"/>
<polygon fill="black" stroke="black" points="147.949,-46.3199 144.644,-36.2535 140.95,-46.1834 147.949,-46.3199"/>
<text text-anchor="middle" x="145.5" y="-261.4" font-family="Times Roman,serif" font-size="14.00">A</text>
</g>
<!-- 14 -->
<g id="node15" class="node"><title>14</title>
<ellipse fill="none" stroke="#000000" cx="223" cy="-319" rx="22.8079" ry="22.8079"/>
<ellipse fill="none" stroke="#000000" cx="223" cy="-319" rx="26.8079" ry="26.8079"/>
<text text-anchor="middle" x="223" y="-314.4" font-family="Times Roman,serif" font-size="14.00">14</text>
</g>
<!-- 12&#45;&gt;14 -->
<g id="edge44" class="edge"><title>12&#45;&gt;14</title>
<path fill="none" stroke="black" d="M240.255,-398.525C237.429,-385.498 233.977,-369.591 230.906,-355.436"/>
<polygon fill="black" stroke="black" points="234.292,-354.535 228.751,-345.505 227.451,-356.019 234.292,-354.535"/>
<text text-anchor="middle" x="238.5" y="-367.4" font-family="Times Roman,serif" font-size="14.00">&quot;</text>
</g>
<!-- 15 -->
<g id="node16" class="node"><title>15</title>
<ellipse fill="none" stroke="#000000" cx="252" cy="-111" rx="22.8079" ry="22.8079"/>
<text text-anchor="middle" x="252" y="-106.4" font-family="Times Roman,serif" font-size="14.00">15</text>
</g>
<!-- 12&#45;&gt;15 -->
<g id="edge46" class="edge"><title>12&#45;&gt;15</title>
<path fill="none" stroke="black" d="M251.418,-398.434C254.268,-383.167 257.479,-363.587 259,-346 265.127,-275.152 263.777,-257.012 260,-186 259.265,-172.174 257.772,-156.975 256.273,-143.895"/>
<polygon fill="black" stroke="black" points="259.744,-143.442 255.084,-133.927 252.793,-144.271 259.744,-143.442"/>
<text text-anchor="middle" x="268.5" y="-261.4" font-family="Times Roman,serif" font-size="14.00">A</text>
</g>
<!-- 13&#45;&gt;4 -->
<g id="edge48" class="edge"><title>13&#45;&gt;4</title>
<path fill="none" stroke="black" d="M195.273,-440.275C199.955,-444.219 205.088,-448.373 210,-452 221.901,-460.789 228.951,-458.296 238,-470 255.451,-492.572 258,-502.469 258,-531 258,-724 258,-724 258,-724 258,-763.714 213.123,-789.46 182.904,-802.296"/>
<polygon fill="black" stroke="black" points="181.276,-799.178 173.303,-806.155 183.887,-805.673 181.276,-799.178"/>
<text text-anchor="middle" x="261.5" y="-627.4" font-family="Times Roman,serif" font-size="14.00">&quot;</text>
</g>
<!-- 13&#45;&gt;5 -->
<g id="edge50" class="edge"><title>13&#45;&gt;5</title>
<path fill="none" stroke="black" d="M174.559,-401.9C171.666,-380.466 168,-347.651 168,-319 168,-319 168,-319 168,-111 168,-87.9851 161.28,-62.6788 155.105,-44.2824"/>
<polygon fill="black" stroke="black" points="158.4,-43.101 151.776,-34.8316 151.797,-45.4264 158.4,-43.101"/>
<text text-anchor="middle" x="173.5" y="-208.4" font-family="Times Roman,serif" font-size="14.00">A</text>
</g>
<!-- 16 -->
<g id="node17" class="node"><title>16</title>
<ellipse fill="none" stroke="#000000" cx="224" cy="-213" rx="22.8079" ry="22.8079"/>
<ellipse fill="none" stroke="#000000" cx="224" cy="-213" rx="26.8079" ry="26.8079"/>
<text text-anchor="middle" x="224" y="-208.4" font-family="Times Roman,serif" font-size="14.00">16</text>
</g>
<!-- 14&#45;&gt;16 -->
<g id="edge52" class="edge"><title>14&#45;&gt;16</title>
<path fill="none" stroke="black" d="M214.777,-293.263C212.244,-282.415 210.476,-269.63 212,-258 212.397,-254.971 212.938,-251.856 213.572,-248.746"/>
<polygon fill="black" stroke="black" points="216.996,-249.476 215.852,-238.943 210.178,-247.891 216.996,-249.476"/>
<text text-anchor="middle" x="215.5" y="-261.4" font-family="Times Roman,serif" font-size="14.00">&quot;</text>
</g>
<!-- 17 -->
<g id="node18" class="node"><title>17</title>
<ellipse fill="none" stroke="#000000" cx="381" cy="-213" rx="22.8079" ry="22.8079"/>
<text text-anchor="middle" x="381" y="-208.4" font-family="Times Roman,serif" font-size="14.00">17</text>
</g>
<!-- 14&#45;&gt;17 -->
<g id="edge54" class="edge"><title>14&#45;&gt;17</title>
<path fill="none" stroke="black" d="M245.638,-303.813C274.062,-284.743 322.799,-252.046 353.385,-231.526"/>
<polygon fill="black" stroke="black" points="355.521,-234.308 361.875,-225.831 351.621,-228.495 355.521,-234.308"/>
<text text-anchor="middle" x="316.5" y="-261.4" font-family="Times Roman,serif" font-size="14.00">A</text>
</g>
<!-- 15&#45;&gt;4 -->
<g id="edge56" class="edge"><title>15&#45;&gt;4</title>
<path fill="none" stroke="black" d="M265.627,-129.707C289.877,-164.901 338,-244.169 338,-319 338,-724 338,-724 338,-724 338,-757.984 233.849,-790.91 183.123,-804.932"/>
<polygon fill="black" stroke="black" points="182.186,-801.559 173.451,-807.555 184.018,-808.315 182.186,-801.559"/>
<text text-anchor="middle" x="341.5" y="-473.4" font-family="Times Roman,serif" font-size="14.00">&quot;</text>
</g>
<!-- 15&#45;&gt;5 -->
<g id="edge58" class="edge"><title>15&#45;&gt;5</title>
<path fill="none" stroke="black" d="M234.331,-95.6429C215.654,-79.4099 186.196,-53.8055 166.26,-36.4787"/>
<polygon fill="black" stroke="black" points="168.46,-33.753 158.616,-29.8346 163.868,-39.0363 168.46,-33.753"/>
<text text-anchor="middle" x="206.5" y="-57.4" font-family="Times Roman,serif" font-size="14.00">A</text>
</g>
<!-- 16&#45;&gt;14 -->
<g id="edge60" class="edge"><title>16&#45;&gt;14</title>
<path fill="none" stroke="black" d="M223.742,-240.342C223.623,-252.996 223.479,-268.223 223.35,-281.894"/>
<polygon fill="black" stroke="black" points="219.85,-281.945 223.255,-291.977 226.849,-282.011 219.85,-281.945"/>
<text text-anchor="middle" x="226.5" y="-261.4" font-family="Times Roman,serif" font-size="14.00">&quot;</text>
</g>
<!-- 16&#45;&gt;15 -->
<g id="edge62" class="edge"><title>16&#45;&gt;15</title>
<path fill="none" stroke="black" d="M231.211,-186.732C234.862,-173.433 239.325,-157.173 243.179,-143.133"/>
<polygon fill="black" stroke="black" points="246.585,-143.946 245.857,-133.376 239.835,-142.093 246.585,-143.946"/>
<text text-anchor="middle" x="245.5" y="-155.4" font-family="Times Roman,serif" font-size="14.00">A</text>
</g>
<!-- 17&#45;&gt;4 -->
<g id="edge64" class="edge"><title>17&#45;&gt;4</title>
<path fill="none" stroke="black" d="M382.032,-236.154C382.9,-257.625 384,-290.464 384,-319 384,-724 384,-724 384,-724 384,-751.137 374.391,-760.669 352,-776 325.119,-794.406 231.713,-805.214 184.211,-809.642"/>
<polygon fill="black" stroke="black" points="183.645,-806.178 173.999,-810.561 184.272,-813.15 183.645,-806.178"/>
<text text-anchor="middle" x="387.5" y="-526.4" font-family="Times Roman,serif" font-size="14.00">&quot;</text>
</g>
<!-- 17&#45;&gt;5 -->
<g id="edge66" class="edge"><title>17&#45;&gt;5</title>
<path fill="none" stroke="black" d="M370.008,-192.536C363.124,-180.356 353.734,-164.826 344,-152 320.429,-120.942 315.225,-111.35 284,-88 248.191,-61.2225 200.593,-39.8132 171.412,-28.0216"/>
<polygon fill="black" stroke="black" points="172.494,-24.6857 161.907,-24.2588 169.917,-31.1942 172.494,-24.6857"/>
<text text-anchor="middle" x="334.5" y="-106.4" font-family="Times Roman,serif" font-size="14.00">A</text>
</g>
</g>
</svg>
