<?xml version="1.0" encoding="UTF-8" standalone="no"?>
<!DOCTYPE svg PUBLIC "-//W3C//DTD SVG 1.1//EN"
 "http://www.w3.org/Graphics/SVG/1.1/DTD/svg11.dtd">
<!-- Generated by graphviz version 2.26.3 (20100126.1600)
 -->
<!-- Title: Finite_Automata_Graph Pages: 1 -->
<svg width="81pt" height="228pt"
 viewBox="0.00 0.00 81.00 228.00" xmlns="http://www.w3.org/2000/svg" xmlns:xlink="http://www.w3.org/1999/xlink">
<g id="graph1" class="graph" transform="scale(1 1) rotate(0) translate(4 224)">
<title>Finite_Automata_Graph</title>
<polygon fill="white" stroke="white" points="-4,5 -4,-224 78,-224 78,5 -4,5"/>
<!-- 0 -->
<g id="node1" class="node"><title>0</title>
<ellipse fill="none" stroke="#000000" cx="22" cy="-202" rx="18" ry="18"/>
<text text-anchor="middle" x="22" y="-197.4" font-family="Times Roman,serif" font-size="14.00">0</text>
</g>
<!-- 1 -->
<g id="node2" class="node"><title>1</title>
<ellipse fill="none" stroke="#000000" cx="22" cy="-114" rx="18" ry="18"/>
<text text-anchor="middle" x="22" y="-109.4" font-family="Times Roman,serif" font-size="14.00">1</text>
</g>
<!-- 0&#45;&gt;1 -->
<g id="edge2" class="edge"><title>0&#45;&gt;1</title>
<path fill="none" stroke="black" d="M22,-183.766C22,-171.849 22,-156.038 22,-142.482"/>
<polygon fill="black" stroke="black" points="25.5001,-142.21 22,-132.21 18.5001,-142.21 25.5001,-142.21"/>
<text text-anchor="middle" x="27" y="-153.4" font-family="Times Roman,serif" font-size="14.00">C</text>
</g>
<!-- 2 -->
<g id="node3" class="node"><title>2</title>
<ellipse fill="none" stroke="#000000" cx="22" cy="-22" rx="18" ry="18"/>
<ellipse fill="none" stroke="#000000" cx="22" cy="-22" rx="22" ry="22"/>
<text text-anchor="middle" x="22" y="-17.4" font-family="Times Roman,serif" font-size="14.00">2</text>
</g>
<!-- 1&#45;&gt;2 -->
<g id="edge4" class="edge"><title>1&#45;&gt;2</title>
<path fill="none" stroke="black" d="M22,-95.8238C22,-83.9726 22,-68.1746 22,-54.2345"/>
<polygon fill="black" stroke="black" points="25.5001,-54.0326 22,-44.0326 18.5001,-54.0327 25.5001,-54.0326"/>
<text text-anchor="middle" x="27.5" y="-65.4" font-family="Times Roman,serif" font-size="14.00">D</text>
</g>
<!-- 2&#45;&gt;2 -->
<g id="edge6" class="edge"><title>2&#45;&gt;2</title>
<path fill="none" stroke="black" d="M42.5808,-30.7341C52.8447,-31.9426 62,-29.0312 62,-22 62,-17.4956 58.2427,-14.682 52.8436,-13.5592"/>
<polygon fill="black" stroke="black" points="52.6768,-10.0531 42.5808,-13.2659 52.4767,-17.0502 52.6768,-10.0531"/>
<text text-anchor="middle" x="67.5" y="-17.4" font-family="Times Roman,serif" font-size="14.00">D</text>
</g>
</g>
</svg>
